Coordinates
version=1
nRows=21
nColumns=33
inDegrees=yes

Units are S.I. units (second, meters, Newtons, ...)
Angles are in degrees.

endheader
time	ground_thorax_rot_x	ground_thorax_rot_y	ground_thorax_rot_z	ground_thorax_tx	ground_thorax_ty	ground_thorax_tz	clav_prot_r	clav_elev_r	scapula_abduction_r	scapula_elevation_r	scapula_upward_rot_r	scapula_winging_r	shoulder_elv_r	plane_of_elev_r	axial_rot_r	elbow_flexion_r	pro_sup_r	wrist_flex_r	wrist_dev_r	clav_prot_l	clav_elev_l	scapula_abduction_l	scapula_elevation_l	scapula_upward_rot_l	scapula_winging_l	shoulder_elv_l	plane_of_elev_l	axial_rot_l	elbow_flexion_l	pro_sup_l	wrist_flex_l	wrist_dev_l
     14.08000000	    -38.28576939	     -6.61371485	      9.18834059	    -96.30085969	    828.58921909	    -33.18006107	     22.76623808	    -45.00000000	     33.99469952	    -45.00000000	    -45.00000000	  -1174.65682803	  -3166.24762386	     24.06707389	    179.99999979	   1803.43338300	   -188.51348319	     13.80349511	     15.32291331	      2.91341429	     28.60540782	    -28.64163872	    -45.00000000	    -45.00000000	  -2444.40877003	   -983.49376216	     18.55195452	   -179.99999979	   1078.64515322	    530.01006880	     11.62431260	    -16.60059889
     14.09000000	    -38.31178265	     -6.53167545	      8.94952666	    -97.52568093	    830.40984987	    -33.49882404	     22.69976478	    -45.00000000	     33.98085917	    -45.00000000	    -45.00000000	  -1174.75849862	  -3166.20631267	     24.08348506	    179.99999979	   1803.32652065	   -189.09822309	     13.84243659	     15.32915190	      2.89194353	     28.65199415	    -28.70834782	    -45.00000000	    -45.00000000	  -2444.29296435	   -983.46653206	     18.53869130	   -179.99999979	   1078.64264882	    529.02505161	     11.60167106	    -16.51109243
     14.10000000	    -38.31733047	     -6.48114813	      8.77242447	    -98.67774790	    832.20350937	    -33.80355597	     22.65159105	    -45.00000000	     33.96114009	    -45.00000000	    -45.00000000	  -1174.87749339	  -3166.15951839	     24.09299546	    179.99999979	   1803.23509603	   -189.65515537	     13.87983729	     15.33298861	      2.85656490	     28.69227293	    -28.76410250	    -45.00000000	    -45.00000000	  -2444.17749341	   -983.45391620	     18.53461246	   -179.99999979	   1078.64586919	    528.07780977	     11.59789275	    -16.41860945
     14.11000000	    -38.33207636	     -6.37540444	      8.52154596	    -99.75522484	    833.96373642	    -34.08874739	     22.59288179	    -45.00000000	     33.95288218	    -45.00000000	    -45.00000000	  -1174.98549911	  -3166.10597654	     24.13406930	    179.99999979	   1803.11561139	   -190.17375750	     13.94333421	     15.34237914	      2.80158326	     28.75205839	    -28.82078754	    -45.00000000	    -45.00000000	  -2444.06657654	   -983.42919139	     18.56954072	   -179.99999979	   1078.64235514	    527.20077425	     11.57769814	    -16.34877441
     14.12000000	    -38.35342219	     -6.32207577	      8.31510070	   -100.75751271	    835.68439616	    -34.35072426	     22.56308129	    -45.00000000	     33.94640102	    -45.00000000	    -45.00000000	  -1175.10684399	  -3166.10442530	     24.20116102	    179.99999979	   1803.03086669	   -190.66445554	     13.97942776	     15.39321163	      2.73326801	     28.80813717	    -28.82020948	    -45.00000000	    -45.00000000	  -2443.91368230	   -983.35740525	     18.64700093	   -179.99999979	   1078.63160166	    526.39973449	     11.61881515	    -16.26802676
     14.13000000	    -38.35327336	     -6.27498402	      8.12381745	   -101.68327493	    837.35907192	    -34.58838308	     22.52742891	    -45.00000000	     33.92408495	    -45.00000000	    -45.00000000	  -1175.20352456	  -3166.06151021	     24.25070739	    179.99999979	   1802.94172187	   -191.13014179	     14.01771392	     15.41704818	      2.70289999	     28.85700066	    -28.81618475	    -45.00000000	    -45.00000000	  -2443.81932674	   -983.29692898	     18.68456313	   -179.99999979	   1078.61080595	    525.67265092	     11.62560019	    -16.20741211
     14.14000000	    -38.36349252	     -6.24778457	      7.95487637	   -102.53126474	    838.98144579	    -34.80191960	     22.47747991	    -45.00000000	     33.88111377	    -45.00000000	    -45.00000000	  -1175.28131139	  -3166.01939421	     24.28406181	    179.99999979	   1802.83380790	   -191.56841383	     14.07536613	     15.41109786	      2.66381795	     28.89394989	    -28.83037053	    -45.00000000	    -45.00000000	  -2443.75801183	   -983.26758268	     18.68452803	   -179.99999979	   1078.62751921	    525.03996225	     11.58704440	    -16.16335594
     14.15000000	    -38.35031801	     -6.20592686	      7.79396935	   -103.29909684	    840.54388128	    -34.99303003	     22.43489085	    -45.00000000	     33.86485361	    -45.00000000	    -45.00000000	  -1175.38116973	  -3165.97390020	     24.30475001	    179.99999979	   1802.73713559	   -191.97596171	     14.12387740	     15.40751834	      2.64031811	     28.91790060	    -28.83349466	    -45.00000000	    -45.00000000	  -2443.67699519	   -983.22065704	     18.68615786	   -179.99999979	   1078.53854624	    524.49522292	     11.53615079	    -16.16032284
     14.16000000	    -38.34195137	     -6.20074937	      7.64260293	   -103.98522573	    842.03908165	    -35.16374389	     22.40046684	    -45.00000000	     33.84021872	    -45.00000000	    -45.00000000	  -1175.46058560	  -3165.96175150	     24.36798119	    179.99999979	   1802.65942181	   -192.35561923	     14.16591305	     15.42012367	      2.58480480	     28.95084960	    -28.80721853	    -45.00000000	    -45.00000000	  -2443.56322396	   -983.14114010	     18.74196365	   -179.99999979	   1078.46334584	    524.09695683	     11.48942908	    -16.16385308
     14.17000000	    -38.33137449	     -6.14000477	      7.45505922	   -104.58762624	    843.45559551	    -35.31667612	     22.35853053	    -45.00000000	     33.81948208	    -45.00000000	    -45.00000000	  -1175.53307741	  -3165.93591097	     24.40948660	    179.99999979	   1802.54936120	   -192.69576652	     14.22921799	     15.40877131	      2.55779955	     28.97396805	    -28.79400114	    -45.00000000	    -45.00000000	  -2443.51351021	   -983.06667662	     18.77561676	   -179.99999979	   1078.38043422	    523.84649481	     11.35579018	    -16.20412601
     14.18000000	    -38.32636800	     -6.15063898	      7.32997544	   -105.10624251	    844.78167253	    -35.45315047	     22.32450122	    -45.00000000	     33.79041382	    -45.00000000	    -45.00000000	  -1175.61970997	  -3165.91541440	     24.45883309	    179.99999979	   1802.45028164	   -193.01205872	     14.29044832	     15.39721010	      2.50024894	     29.00634134	    -28.76379962	    -45.00000000	    -45.00000000	  -2443.44248636	   -982.97990854	     18.82106726	   -179.99999979	   1078.31341040	    523.77479137	     11.20942237	    -16.26077509
     14.19000000	    -38.31085653	     -6.11939030	      7.16902164	   -105.54286729	    846.00290968	    -35.57517224	     22.28551479	    -45.00000000	     33.77222995	    -45.00000000	    -45.00000000	  -1175.68009319	  -3165.89998944	     24.48881794	    179.99999979	   1802.34479051	   -193.28834912	     14.36112541	     15.37126433	      2.47028482	     29.01985162	    -28.75125928	    -45.00000000	    -45.00000000	  -2443.41430294	   -982.90557307	     18.84907815	   -179.99999979	   1078.22259506	    523.87248291	     10.98888940	    -16.35727126
     14.20000000	    -38.29618456	     -6.14106535	      7.09849504	   -105.89999539	    847.10699251	    -35.68229943	     22.25116495	    -45.00000000	     33.71169974	    -45.00000000	    -45.00000000	  -1175.75751253	  -3165.86201226	     24.50693684	    179.99999979	   1802.25023898	   -193.53971119	     14.44773195	     15.32298751	      2.40197107	     29.04750454	    -28.72048677	    -45.00000000	    -45.00000000	  -2443.38452346	   -982.85502565	     18.87952264	   -179.99999979	   1078.16256181	    524.14335217	     10.73569222	    -16.47161751
     14.21000000	    -38.36008609	     -5.96227988	      6.64609509	   -106.18148198	    848.08085906	    -35.77685219	     22.24062653	    -45.00000000	     33.77776339	    -45.00000000	    -44.63336836	  -1175.78325961	  -3165.99056075	     24.65136976	    179.99999979	   1802.22299160	   -193.72144189	     14.55443014	     15.30425011	      2.34094962	     29.09717188	    -28.63612784	    -45.00000000	    -45.00000000	  -2443.33646506	   -982.62122216	     19.13207345	   -179.99999979	   1078.16980489	    524.51873806	     10.37071075	    -16.60117893
     14.22000000	    -38.37486343	     -5.93054395	      6.49796990	   -106.39169610	    848.92065065	    -35.86030874	     22.13591107	    -45.00000000	     33.86076442	    -45.00000000	    -44.71312227	  -1175.83680408	  -3166.02337856	     24.60144380	    179.99999979	   1802.01013170	   -193.84675301	     14.66953475	     15.30493560	      2.41078329	     29.05819375	    -28.66345207	    -45.00000000	    -45.00000000	  -2443.34035452	   -982.56504387	     19.04480125	   -179.99999979	   1077.88908111	    524.96305696	     10.09538910	    -16.79155248
     14.23000000	    -38.36278926	     -6.12611279	      6.67058588	   -106.53435427	    849.61340857	    -35.93872550	     22.16283143	    -45.00000000	     33.62039559	    -45.00000000	    -45.00000000	  -1175.87975888	  -3165.91361357	     24.70794021	    179.99999979	   1802.09636556	   -194.01969450	     14.80888027	     15.13852082	      2.27188315	     29.12508123	    -28.55972821	    -45.00000000	    -45.00000000	  -2443.22386369	   -982.52003442	     19.19380365	   -179.99999979	   1077.86289431	    525.50263507	      9.75372336	    -16.94333054
     14.24000000	    -38.35880142	     -6.30858540	      6.67739071	   -106.61574561	    850.16544756	    -36.01734739	     22.17359730	    -45.00000000	     33.76930292	    -45.00000000	    -45.00000000	  -1175.94857711	  -3165.93877702	     24.62632481	    179.99999979	   1801.89744744	   -194.14235155	     14.84592973	     15.19028033	      2.27344406	     29.07133940	    -28.53160938	    -45.00000000	    -45.00000000	  -2443.34719586	   -982.49104209	     19.00014813	   -179.99999979	   1077.81980623	    526.29821559	      9.59669563	    -17.05446964
     14.25000000	    -38.40350596	     -6.31817714	      6.56532448	   -106.64324784	    850.57603548	    -36.10441340	     22.18360846	    -45.00000000	     33.71972298	    -45.00000000	    -45.00000000	  -1175.96370674	  -3165.99478969	     24.72200875	    179.99999979	   1801.86841197	   -194.29620133	     15.08213290	     15.06820826	      2.16086644	     29.12874544	    -28.47219866	    -45.00000000	    -45.00000000	  -2443.25132888	   -982.41530621	     19.22459778	   -179.99999979	   1077.72453692	    527.07620205	      9.09233913	    -17.27609261
     14.26000000	    -38.37485848	     -6.51934395	      6.73863050	   -106.62486838	    850.85633423	    -36.20473371	     22.11802490	    -45.00000000	     33.76017711	    -45.00000000	    -45.00000000	  -1176.02520794	  -3165.90768080	     24.53805829	    179.99999979	   1801.72864140	   -194.38582105	     15.04322920	     15.13113796	      2.24647511	     29.05231803	    -28.47771158	    -45.00000000	    -45.00000000	  -2443.43193571	   -982.42057561	     18.93456459	   -179.99999979	   1077.59045629	    527.95377044	      9.01947136	    -17.36545344
     14.27000000	    -38.45242073	     -6.52568116	      6.55569512	   -106.57252458	    851.01431338	    -36.32280565	     22.18851963	    -45.00000000	     33.73603897	    -45.00000000	    -45.00000000	  -1176.00998313	  -3166.03261214	     24.73335607	    179.99999979	   1801.80605357	   -194.52902621	     15.27039349	     14.99722605	      2.07084988	     29.12665212	    -28.38993758	    -45.00000000	    -45.00000000	  -2443.28610108	   -982.37341543	     19.24996423	   -179.99999979	   1077.60937357	    528.88393626	      8.49937589	    -17.56712527
     14.28000000	    -38.43685720	     -6.81281131	      6.79851423	   -106.49481922	    851.06460378	    -36.45895795	     22.10229570	    -45.00000000	     33.74218833	    -45.00000000	    -45.00000000	  -1176.01773324	  -3165.95612490	     24.51256331	    179.99999979	   1801.61933775	   -194.60247435	     15.25270719	     15.05906590	      2.21460696	     29.04402672	    -28.34848584	    -45.00000000	    -45.00000000	  -2443.50548607	   -982.37849494	     18.88592600	   -179.99999979	   1077.47515441	    529.82101846	      8.42155536	    -17.63077490
